<svg xmlns="http://www.w3.org/2000/svg" viewBox="0 0 413.42 100" role="img" aria-label="Valunds">
<path fill="#10283D" d="M8 14 H34 L54 58 L39 84 Z"/><path fill="#2F91A6" d="M92 14 H66 L46 58 L61 84 Z"/>
<g fill="#10283D"><path d="M148.89100313186646 78.0 131.21930360794067 28.78125H141.0904574394226L155.1873254776001 72.10739183425903H154.10025119781494L168.139808177948 28.78125H178.01096200942993L160.365731716156 78.0Z"/><path d="M194.42986249923706 78.86001634597778Q190.84433317184448 78.86001634597778 187.94838070869446 77.5672881603241Q185.05242824554443 76.27455997467041 183.35771322250366 73.80700516700745Q181.6629981994629 71.33945035934448 181.6629981994629 67.83206033706665Q181.6629981994629 64.06665372848511 183.85608077049255 61.283771276474Q186.04916334152222 58.50088882446289 190.32553791999817 56.97442698478699Q194.60191249847412 55.447965145111084 200.86116790771484 55.447965145111084H206.35178089141846L205.73654651641846 56.288187980651855V54.19217872619629Q205.73654651641846 50.291438579559326 204.27021622657776 48.326223373413086Q202.80388593673706 46.361008167266846 199.38833713531494 46.361008167266846Q196.13263845443726 46.361008167266846 194.40391898155212 48.06383419036865Q192.675199508667 49.76666021347046 192.3928999900818 52.800825119018555L183.23307752609253 51.10611009597778Q183.7127447128296 48.066304206848145 185.7508671283722 45.59598731994629Q187.7889895439148 43.125670433044434 191.33878707885742 41.655943870544434Q194.88858461380005 40.186217308044434 199.9176049232483 40.186217308044434Q204.67307090759277 40.186217308044434 207.88331627845764 41.78546953201294Q211.0935616493225 43.384721755981445 212.72434830665588 46.78180384635925Q214.35513496398926 50.17888593673706 214.35513496398926 55.59608268737793V69.46888017654419Q214.35513496398926 70.61004447937012 214.67984199523926 70.98602104187012Q215.00454902648926 71.36199760437012 216.06411933898926 71.36199760437012H217.85791873931885V78.0H213.3669114112854Q209.90451574325562 78.0 207.98153281211853 76.1635594367981Q206.05854988098145 74.32711887359619 206.05854988098145 71.0599045753479V69.05780601501465L207.5615382194519 69.52101755142212Q207.08083629608154 70.98303365707397 206.16793990135193 72.59557890892029Q205.25504350662231 74.2081241607666 203.72909903526306 75.6354432106018Q202.2031545639038 77.06276226043701 199.92025017738342 77.9613893032074Q197.63734579086304 78.86001634597778 194.42986249923706 78.86001634597778ZM196.85363292694092 72.57934856414795Q199.38615083694458 72.57934856414795 201.40925288200378 71.38311791419983Q203.432354927063 70.18688726425171 204.62139248847961 67.74540114402771Q205.81043004989624 65.30391502380371 205.81043004989624 61.564293384552V60.91257619857788H201.05312824249268Q197.12925672531128 60.91257619857788 194.9115490913391 61.943432569503784Q192.69384145736694 62.97428894042969 191.7919933795929 64.46985054016113Q190.89014530181885 65.96541213989258 190.89014530181885 67.41741466522217Q190.89014530181885 68.67089796066284 191.47114157676697 69.85389399528503Q192.0521378517151 71.03689002990723 193.35971117019653 71.80811929702759Q194.66728448867798 72.57934856414795 196.85363292694092 72.57934856414795Z"/><path d="M232.4887776374817 78.0Q228.964581489563 78.0 226.94015264511108 76.17017674446106Q224.91572380065918 74.34035348892212 224.91572380065918 71.0599045753479V26.73046875H233.7283420562744V69.46888017654419Q233.7283420562744 70.60475063323975 234.0530490875244 70.98337411880493Q234.3777561187744 71.36199760437012 235.4373264312744 71.36199760437012H238.51004362106323V78.0Z"/><path d="M256.91009759902954 78.87325096130371Q252.783100605011 78.87325096130371 249.9991250038147 76.9845061302185Q247.2151494026184 75.0957612991333 245.8226442337036 71.7031102180481Q244.43013906478882 68.31045913696289 244.43013906478882 63.81197500228882V41.0859375H253.24275732040405V62.85148906707764Q253.24275732040405 67.32350397109985 254.8326301574707 69.69996857643127Q256.42250299453735 72.0764331817627 260.0320816040039 72.0764331817627Q262.3946189880371 72.0764331817627 264.3316960334778 70.85051226615906Q266.26877307891846 69.62459135055542 267.44020342826843 66.93452644348145Q268.6116337776184 64.24446153640747 268.6116337776184 59.858646869659424V41.0859375H277.42425203323364V78.0H268.9534306526184V69.33159399032593L269.20592308044434 70.84873485565186Q267.6115608215332 74.50492668151855 264.49516773223877 76.68908882141113Q261.37877464294434 78.87325096130371 256.91009759902954 78.87325096130371Z"/><path d="M287.5307250022888 78.0V41.0859375H296.00154638290405V49.54489278793335L295.7490539550781 48.02775192260742Q297.36436128616333 44.51817560195923 300.4702818393707 42.36543107032776Q303.5762023925781 40.21268653869629 308.0029892921448 40.21268653869629Q312.1851110458374 40.21268653869629 314.9624693393707 42.101431369781494Q317.73982763290405 43.9901762008667 319.13233280181885 47.37235474586487Q320.52483797073364 50.75453329086304 320.52483797073364 55.27396249771118V78.0H311.7122197151184V55.86387920379639Q311.7122197151184 51.741488456726074 310.2398478984833 49.37549638748169Q308.76747608184814 47.009504318237305 305.2361536026001 47.009504318237305Q301.190984249115 47.009504318237305 298.7671637535095 50.340872287750244Q296.34334325790405 53.672240257263184 296.34334325790405 60.34280347824097V78.0Z"/><path d="M342.4497723579407 78.87325096130371Q337.86635637283325 78.87325096130371 334.4445323944092 76.54132175445557Q331.0227084159851 74.20939254760742 329.15496706962585 69.86195492744446Q327.2872257232666 65.5145173072815 327.2872257232666 59.482319831848145Q327.2872257232666 53.450122356414795 329.17205691337585 49.13300919532776Q331.0568881034851 44.81589603424072 334.48147416114807 42.514291286468506Q337.90606021881104 40.21268653869629 342.5556492805481 40.21268653869629Q346.49632692337036 40.21268653869629 349.8061740398407 42.0771484375Q353.11602115631104 43.94161033630371 355.0466561317444 48.23501634597778L354.13254976272583 48.36287307739258V26.73046875H362.94516801834106V78.0H354.6066927909851V70.49485492706299L354.7378873825073 71.02849531173706Q352.9957580566406 75.0352292060852 349.7145664691925 76.95424008369446Q346.4333748817444 78.87325096130371 342.4497723579407 78.87325096130371ZM345.47565937042236 72.06319856643677Q348.0235981941223 72.06319856643677 350.0720763206482 70.72472500801086Q352.1205544471741 69.38625144958496 353.32449555397034 66.61395835876465Q354.5284366607666 63.841665267944336 354.5284366607666 59.619038581848145Q354.5284366607666 53.279574394226074 351.92209362983704 50.14453935623169Q349.31575059890747 47.009504318237305 345.5572533607483 47.009504318237305Q341.58596754074097 47.009504318237305 339.1361951828003 50.3297655582428Q336.6864228248596 53.65002679824829 336.6864228248596 59.671977043151855Q336.6864228248596 65.5285530090332 339.0535080432892 68.79587578773499Q341.42059326171875 72.06319856643677 345.47565937042236 72.06319856643677Z"/><path d="M386.9311308860779 78.87325096130371Q382.81299591064453 78.87325096130371 379.25105690956116 77.63012337684631Q375.6891179084778 76.38699579238892 373.28433990478516 73.78329801559448Q370.87956190109253 71.17960023880005 370.17502307891846 67.05709266662598L378.4537672996521 65.4317717552185Q378.7900400161743 68.92557668685913 380.9007775783539 70.67414808273315Q383.01151514053345 72.42271947860718 386.63007259368896 72.42271947860718Q390.16151189804077 72.42271947860718 392.0081913471222 70.8913676738739Q393.8548707962036 69.36001586914062 393.8548707962036 67.23224687576294Q393.8548707962036 65.3955225944519 392.46294140815735 64.15297079086304Q391.0710120201111 62.91041898727417 387.96837091445923 62.408771991729736L384.25843954086304 61.76603364944458Q382.3410391807556 61.450706005096436 380.18766045570374 60.88841009140015Q378.03428173065186 60.32611417770386 376.13725066185 59.245598793029785Q374.2402195930481 58.16508340835571 373.0521583557129 56.30171465873718Q371.8640971183777 54.43834590911865 371.8640971183777 51.51316213607788Q371.8640971183777 47.863646030426025 373.80077362060547 45.351380586624146Q375.73745012283325 42.839115142822266 379.1097319126129 41.52590084075928Q382.4820137023926 40.21268653869629 386.71385288238525 40.21268653869629Q390.7978081703186 40.21268653869629 394.0681266784668 41.42992067337036Q397.338445186615 42.647154808044434 399.4951617717743 44.97689771652222Q401.6518783569336 47.306640625 402.3200511932373 50.699291706085205L393.9454436302185 52.41391706466675Q393.7061858177185 50.79216766357422 392.97356724739075 49.46583557128906Q392.240948677063 48.139503479003906 390.78837037086487 47.35503959655762Q389.33579206466675 46.57057571411133 386.90247535705566 46.57057571411133Q384.10756826400757 46.57057571411133 382.3270618915558 47.691829681396484Q380.546555519104 48.81308364868164 380.546555519104 50.86478281021118Q380.546555519104 52.22310829162598 381.3883888721466 53.123863220214844Q382.2302222251892 54.02461814880371 383.75892877578735 54.58633828163147Q385.2876353263855 55.14805841445923 387.34163761138916 55.54164218902588L391.39785528182983 56.286919593811035Q394.3086528778076 56.78856658935547 396.8876087665558 57.95343804359436Q399.46656465530396 59.11830949783325 401.0752546787262 61.2540225982666Q402.68394470214844 63.38973569869995 402.68394470214844 66.87721538543701Q402.68394470214844 70.7197265625 400.6435775756836 73.40835618972778Q398.60321044921875 76.09698581695557 395.0489819049835 77.48511838912964Q391.4947533607483 78.87325096130371 386.9311308860779 78.87325096130371Z"/></g>
</svg>
